<svg xmlns="http://www.w3.org/2000/svg" width="210" height="33" viewBox="0 0 210 33"><g fill="#20453C"><path d="M76.656 13.717q-1.21-2.476-3.476-3.822-2.266-1.345-5.5-1.344c-2.156 0-3.91.386-5.56 1.16q-2.477 1.161-3.93 3.24-1.42 2.076-1.42 4.86c0 1.856.492 3.524 1.482 4.951q1.48 2.108 4.02 3.302 2.569 1.16 5.803 1.16a17.9 17.9 0 0 0 4.958-.704q2.479-.733 4.412-2.11v-4.4a13.8 13.8 0 0 1-3.444 1.466 14.9 14.9 0 0 1-3.81.49c-1.31 0-2.468-.174-3.356-.52q-1.332-.519-1.993-1.498a4 4 0 0 1-.23-.428h13.253q0-3.363-1.21-5.806zm-12.237 2.23q.077-.254.18-.49a3.36 3.36 0 0 1 1.21-1.437q.816-.52 1.966-.52 1.029 0 1.752.428.756.397 1.21 1.191c.14.245.257.524.351.824h-6.67z"/><path d="M57.564 9.102h-8.372l-3.237 4.143-3.261-4.143H34.29l6.691 8.703-7.144 8.871h8.553l3.454-4.412 3.497 4.412h8.675l-7.346-8.941z"/><path d="M201.778 21.97q-2.024-.001-3.356-.521c-.885-.346-1.553-.845-1.994-1.498a3.4 3.4 0 0 1-.226-.428h13.253q0-3.363-1.21-5.806-1.207-2.476-3.475-3.822-2.265-1.345-5.5-1.344c-2.156 0-3.91.386-5.561 1.16q-2.479 1.161-3.929 3.24-1.42 2.076-1.421 4.86c0 1.856.493 3.524 1.482 4.951q1.481 2.108 4.021 3.302 2.569 1.16 5.803 1.16a17.9 17.9 0 0 0 4.958-.704q2.479-.733 4.412-2.11v-4.4a13.7 13.7 0 0 1-3.445 1.466q-1.842.489-3.809.49zm-5.592-6.51a3.36 3.36 0 0 1 1.21-1.437q.816-.52 1.963-.52 1.03 0 1.751.428.757.399 1.21 1.191c.141.245.257.524.352.824h-6.666q.077-.251.18-.49z"/><path d="M32.156 1.673Q31.007.728 29.04.727c-1.31 0-2.327.315-3.114.946q-1.18.947-1.179 2.597t1.179 2.597c.787.63 1.822.946 3.114.946 1.293 0 2.349-.316 3.115-.946q1.18-.948 1.178-2.597 0-1.65-1.178-2.597"/><path d="M25.205 8.735v17.94h7.677V8.736l-3.837.793z"/><path d="M18.89 9.711c-1.27-.774-2.758-1.16-4.473-1.16s-3.093.386-4.382 1.16a8.3 8.3 0 0 0-2.358 2.077V9.102H0V31.72h7.677v-7.757a8.5 8.5 0 0 0 2.327 2.104q1.934 1.16 4.413 1.16c1.653 0 3.203-.386 4.474-1.16q1.905-1.162 2.96-3.27 1.09-2.108 1.088-4.891c0-1.856-.361-3.515-1.087-4.921-.704-1.406-1.694-2.496-2.961-3.27zm-4.112 9.995a3.06 3.06 0 0 1-1.148 1.222q-.725.46-1.694.46a4.4 4.4 0 0 1-1.935-.46 5.4 5.4 0 0 1-1.632-1.222 4.8 4.8 0 0 1-.998-1.803 4.8 4.8 0 0 1 .998-1.804 5.2 5.2 0 0 1 1.632-1.252 4.35 4.35 0 0 1 1.936-.46c.664 0 1.209.153 1.693.46q.758.458 1.148 1.252.423.794.423 1.804t-.423 1.803"/><path d="M127.516 8.735v17.94h7.677V8.736l-3.84.793z"/><path d="M134.468 1.673q-1.149-.945-3.114-.946c-1.311 0-2.328.315-3.115.946q-1.178.947-1.178 2.597t1.178 2.597q1.181.945 3.115.946c1.289 0 2.345-.316 3.114-.946q1.18-.948 1.179-2.597t-1.179-2.597"/><path d="M178.539 11.359a12 12 0 0 0-.787-.698 9.4 9.4 0 0 0-2.689-1.528q-1.51-.58-3.383-.582-2.478.001-4.413 1.007a7.5 7.5 0 0 0-3.053 2.78q-1.088 1.775-1.087 4.187c0 1.608.361 2.986 1.087 4.186q1.118 1.805 3.053 2.81 1.935.979 4.413.978c1.65 0 2.952-.264 4.14-.793q1.594-.726 2.719-1.782v.254q.001 2.598-1.39 3.607t-3.99 1.007q-2.206 0-4.352-.643a13.7 13.7 0 0 1-3.99-2.048v5.653q2.146 1.222 4.232 1.864 2.118.644 4.594.643 3.867.001 6.678-1.252t4.352-3.577q1.541-2.29 1.54-5.441V9.102h-7.677v2.257zm-1.54 7.279q-1.117.735-2.631.735-1.087-.001-1.904-.337-.787-.337-1.21-.977-.423-.643-.423-1.528c0-.591.141-1.13.423-1.559a2.64 2.64 0 0 1 1.24-.946q.818-.336 1.874-.337 1.48 0 2.6.735c.744.469 1.351 1.173 1.813 2.11q-.666 1.375-1.782 2.11z"/><path d="m154.252 3.14-1.197 9.07c-.729-1.047-1.617-1.883-2.67-2.499q-1.907-1.16-4.382-1.16c-1.651 0-3.185.386-4.474 1.16q-1.905 1.162-2.992 3.27-1.056 2.11-1.057 4.922c0 1.874.353 3.485 1.057 4.89q1.09 2.109 2.992 3.27 1.933 1.162 4.474 1.161c1.693 0 3.114-.386 4.382-1.16a8.55 8.55 0 0 0 2.737-2.637l.435 3.246h7.98l-1.24-9.413 1.935-14.12zm-2.208 16.566a5.4 5.4 0 0 1-1.632 1.222 4.35 4.35 0 0 1-1.935.46c-.665 0-1.219-.154-1.724-.46a3.34 3.34 0 0 1-1.149-1.222q-.393-.794-.391-1.803 0-1.01.391-1.804.423-.794 1.149-1.252.756-.46 1.724-.46c.646 0 1.31.153 1.935.46q.938.458 1.632 1.252.727.794.999 1.804a4.3 4.3 0 0 1-.999 1.803"/><path d="M87.808 3.14H80.13v23.533h7.677z"/><path d="M101.095 10.63c0-.796.203-1.384.604-1.773q.606-.58 2.508-.582 1.03 0 1.963.153.477.076.952.175V3.039q-.76-.167-1.436-.264a14.6 14.6 0 0 0-2.419-.183q-3.144 0-5.35.946-2.206.917-3.356 2.78-1.102 1.764-1.143 4.4h-3.42v5.654h3.414V26.67h7.677V16.372h6.498v-5.653h-6.498v-.092z"/><path d="M123.586 8.55q-1.814 0-3.022.794t-1.993 2.171c-.368.628-.68 1.323-.95 2.08l-.744-4.493h-7.857l1.209 6.112v11.462h7.677v-6.755q0-1.986.603-3.056.635-1.072 1.632-1.467a5.4 5.4 0 0 1 2.147-.429q.634 0 1.452.092.816.061 1.843.245V8.735a12 12 0 0 0-1.056-.123 8 8 0 0 0-.938-.061z"/></g></svg>
