<svg xmlns="http://www.w3.org/2000/svg" width="198" height="32" viewBox="0 0 198 32" fill="none">
<path fill-rule="evenodd" clip-rule="evenodd" d="M124.382 16.9483C124.382 21.2071 122.423 23.4199 118.173 24.4876C120.303 26.7869 125.334 26.9718 125.334 26.9718V31.5646H124.034C117.526 31.5646 114.079 29.2414 112.588 25.1497L112.084 25.2033V31.5646H106.435V8.69336H113.813C121.367 8.69336 124.382 11.7174 124.382 16.9483ZM114.058 13.2831H112.084V20.6136H113.78C116.864 20.6136 119.187 19.6503 119.187 16.9483C119.187 14.3508 117.174 13.2831 114.058 13.2831Z" fill="#281744"/>
<path d="M156.332 20.0976C156.332 12.7523 151.715 8.69336 143.571 8.69336H134.737V20.6225H140.382V13.2831H143.538C148.491 13.2831 150.695 16.1819 150.695 20.0976C150.695 24.6039 148.467 26.9569 143.618 26.9569H134.737V31.5497H143.571C152.395 31.5646 156.332 27.273 156.332 20.0976Z" fill="#281744"/>
<path d="M71.5571 0.459259V23.3275H85.4844V18.7526H77.2026V0.459259H71.5571Z" fill="#281744"/>
<path d="M17.0528 9.09002C17.0528 15.317 13.0774 18.2069 6.84436 18.2069H5.65145V23.3275H0V13.632L6.39105 13.6142C9.87437 13.6142 12.0007 12.1498 12.0007 9.29878C12.0007 6.4477 9.94297 5.05199 6.66841 5.05199H0V0.459259H6.42386C13.808 0.459259 17.0528 3.34612 17.0528 9.09002Z" fill="#281744"/>
<path d="M19.1344 3.28052C19.1332 4.42215 19.8201 5.45198 20.8746 5.88942C21.9291 6.32686 23.1433 6.08568 23.9506 5.27842C24.7578 4.47117 24.999 3.25698 24.5616 2.20248C24.1241 1.14798 23.0943 0.461045 21.9527 0.462251C20.3962 0.462251 19.1344 1.72403 19.1344 3.28052Z" fill="#FF597E"/>
<path d="M19.1344 12.2513C19.1344 13.3926 19.8221 14.4216 20.8767 14.8581C21.9313 15.2946 23.145 15.0526 23.9516 14.2451C24.7583 13.4377 24.9989 12.2237 24.5613 11.1696C24.1237 10.1154 23.094 9.42882 21.9527 9.43002C21.2047 9.43002 20.4874 9.72736 19.9588 10.2565C19.4302 10.7857 19.1336 11.5033 19.1344 12.2513Z" fill="#FF597E"/>
<path d="M53.7737 0.450348V23.3216H68.4317V18.7288H59.4221V15.1024H66.0756V10.5126H59.4221V5.0401H68.4317V0.450348H53.7737Z" fill="#281744"/>
<path d="M103.283 13.2831V8.69336H88.6248V31.5646H94.2733V23.3454H100.927V18.7646H94.2733V13.2831H103.283Z" fill="#281744"/>
<path d="M169.916 18.7497V23.3364H174.906C174.246 26.1428 172.57 27.1896 170.089 27.1896C165.756 27.1896 164.059 24.1804 164.059 20.1603C164.059 15.2395 166.624 13.0893 170.024 13.0893C172.657 13.0893 174.112 14.3359 174.566 16.17L179.483 14.819C178.887 10.5573 175.606 8.23709 170.164 8.23709C163.579 8.23709 158.416 11.5653 158.416 20.1663C158.416 28.5167 163.307 32 169.749 32C174.983 32 180.142 29.5515 180.384 21.2011L180.42 18.7556L169.916 18.7497Z" fill="#281744"/>
<path d="M197.654 13.2831V8.69336H182.997V31.5646H197.654V26.9718H188.645V23.3454H195.298V18.7556H188.645V13.2831H197.654Z" fill="#281744"/>
<path d="M51.1463 3.99329L47.153 0L39.2619 7.89115L31.3707 0L27.3774 3.99329L35.2686 11.8844L27.3774 19.7786L31.3707 23.7719L39.2619 15.8807L47.153 23.7719L51.1463 19.7786L43.2552 11.8844L51.1463 3.99329Z" fill="#281744"/>
<path d="M126.47 11.5325C126.47 13.089 127.732 14.3508 129.288 14.3508C130.845 14.3508 132.107 13.089 132.107 11.5325C132.107 9.97604 130.845 8.71426 129.288 8.71426C127.733 8.71591 126.472 9.97673 126.47 11.5325" fill="#FF597E"/>
<path d="M126.47 20.5062C126.47 22.0627 127.732 23.3245 129.288 23.3245C130.845 23.3245 132.107 22.0627 132.107 20.5062C132.107 18.9497 130.845 17.688 129.288 17.688C127.732 17.688 126.47 18.9497 126.47 20.5062" fill="#FF597E"/>
</svg>